<?xml version="1.0" standalone="no"?>
<!DOCTYPE svg PUBLIC "-//W3C//DTD SVG 20010904//EN"
 "http://www.w3.org/TR/2001/REC-SVG-20010904/DTD/svg10.dtd">
<svg version="1.0" xmlns="http://www.w3.org/2000/svg"
 width="300.000000pt" height="300.000000pt" viewBox="0 0 300.000000 300.000000"
 preserveAspectRatio="xMidYMid meet">
<metadata>
Created by potrace 1.14, written by Peter Selinger 2001-2017
</metadata>
<g transform="translate(0.000000,300.000000) scale(0.100000,-0.100000)"
fill="#000000" stroke="none">
<path d="M1298 2700 c-124 -32 -257 -104 -343 -185 -43 -40 -135 -150 -135
-162 0 -6 -3 -13 -8 -15 -12 -5 -73 -144 -88 -201 -18 -70 -27 -189 -16 -206
8 -11 16 -11 43 -2 19 7 81 19 137 27 92 13 115 13 200 -1 98 -16 171 -35 229
-61 17 -8 34 -14 38 -14 3 0 38 -19 76 -41 l69 -41 69 41 c38 22 73 41 76 41
4 0 21 6 38 14 58 26 131 45 228 61 88 14 108 14 210 -1 62 -8 121 -20 132
-26 15 -7 23 -6 35 5 13 14 13 27 2 109 -7 51 -23 122 -37 158 -22 60 -72 158
-94 184 -5 6 -18 21 -28 34 -83 100 -167 170 -263 218 -29 14 -60 30 -70 34
-9 5 -53 18 -98 30 -107 26 -302 26 -402 0z"/>
<path d="M830 1866 c-36 -7 -78 -18 -94 -25 -28 -11 -29 -13 -23 -64 20 -189
181 -432 354 -534 46 -27 83 -24 83 6 0 40 75 241 93 249 4 2 7 8 7 13 0 14
76 121 125 173 25 27 45 55 45 62 0 14 -113 73 -185 97 -116 37 -280 47 -405
23z"/>
<path d="M1875 1869 c-74 -12 -153 -38 -219 -73 -82 -44 -86 -53 -39 -102 44
-46 133 -170 133 -184 0 -6 4 -10 9 -10 5 0 11 -8 14 -17 3 -10 19 -53 35 -96
17 -43 33 -96 37 -117 12 -72 55 -62 175 41 143 123 248 304 266 457 l6 61
-35 14 c-78 33 -265 46 -382 26z"/>
<path d="M525 1738 c-120 -86 -200 -180 -265 -312 -77 -160 -98 -343 -59 -518
67 -297 297 -535 588 -607 117 -29 280 -29 399 1 91 22 225 87 229 110 2 7
-20 38 -48 68 -143 154 -220 336 -238 564 -6 75 -8 80 -36 95 -48 26 -108 64
-135 86 -66 54 -172 171 -207 232 -62 104 -78 143 -121 293 -11 38 -41 35
-107 -12z"/>
<path d="M2370 1761 c-5 -11 -10 -27 -10 -35 0 -41 -54 -169 -113 -269 -51
-87 -191 -231 -258 -268 -13 -6 -28 -16 -33 -21 -6 -5 -27 -17 -46 -27 -34
-18 -35 -19 -41 -97 -11 -139 -50 -281 -101 -367 -15 -26 -28 -52 -28 -57 0
-6 -4 -10 -10 -10 -5 0 -10 -6 -10 -12 0 -15 -25 -47 -93 -121 -26 -29 -46
-58 -45 -65 5 -23 139 -88 230 -110 64 -16 118 -22 201 -22 185 0 330 46 472
150 61 45 193 184 208 219 7 14 14 28 17 31 18 16 71 146 86 210 76 328 -44
645 -321 847 -65 47 -89 53 -105 24z"/>
<path d="M1433 1629 c-35 -34 -65 -70 -68 -81 -4 -10 -10 -18 -14 -18 -11 0
-91 -162 -91 -183 0 -9 -4 -18 -9 -21 -11 -7 -35 -142 -27 -154 3 -5 34 -18
68 -28 89 -26 327 -26 416 0 34 10 65 23 68 28 7 12 -17 147 -28 154 -4 3 -8
12 -8 21 0 21 -80 183 -91 183 -4 0 -10 8 -14 19 -5 17 -116 133 -133 139 -4
1 -35 -26 -69 -59z"/>
<path d="M1220 1065 c-25 -30 11 -200 67 -325 49 -108 177 -269 213 -269 20 0
98 81 148 154 83 124 125 243 126 364 1 98 13 92 -114 67 -122 -24 -299 -16
-406 19 -13 4 -25 1 -34 -10z"/>
</g>
</svg>
