<svg xmlns="http://www.w3.org/2000/svg" xmlns:xlink="http://www.w3.org/1999/xlink" width="20" height="20" preserveAspectRatio="xMidYMid meet" viewBox="0 0 20 20" style="-ms-transform: rotate(360deg); -webkit-transform: rotate(360deg); transform: rotate(360deg);"><g fill="none"><path d="M8 3a1 1 0 0 0-1 1v.5a.5.5 0 0 1-1 0V4a2 2 0 0 1 2-2h.5a.5.5 0 0 1 0 1H8z" fill="#626262"/><path d="M7 12a1 1 0 0 0 1 1h.5a.5.5 0 0 1 0 1H8a2 2 0 0 1-2-2v-.5a.5.5 0 0 1 1 0v.5z" fill="#626262"/><path d="M7 6.5a.5.5 0 0 0-1 0v3a.5.5 0 0 0 1 0v-3z" fill="#626262"/><path d="M16 3a1 1 0 0 1 1 1v.5a.5.5 0 0 0 1 0V4a2 2 0 0 0-2-2h-.5a.5.5 0 0 0 0 1h.5z" fill="#626262"/><path d="M16 13a1 1 0 0 0 1-1v-.5a.5.5 0 0 1 1 0v.5a2 2 0 0 1-2 2h-.5a.5.5 0 0 1 0-1h.5z" fill="#626262"/><path d="M17.5 6a.5.5 0 0 0-.5.5v3a.5.5 0 0 0 1 0v-3a.5.5 0 0 0-.5-.5z" fill="#626262"/><path d="M10.5 2a.5.5 0 0 0 0 1h3a.5.5 0 0 0 0-1h-3z" fill="#626262"/><path d="M10 13.5a.5.5 0 0 1 .5-.5h3a.5.5 0 0 1 0 1h-3a.5.5 0 0 1-.5-.5z" fill="#626262"/><path d="M4 6h1v1H4a1 1 0 0 0-1 1v6.5A2.5 2.5 0 0 0 5.5 17H12a1 1 0 0 0 1-1v-1h1v1a2 2 0 0 1-2 2H5.5A3.5 3.5 0 0 1 2 14.5V8a2 2 0 0 1 2-2z" fill="#626262"/></g><rect x="0" y="0" width="20" height="20" fill="rgba(0, 0, 0, 0)" /></svg>